<svg width="38" height="41" viewBox="0 0 38 41" fill="none" xmlns="http://www.w3.org/2000/svg">
<path d="M14.6668 37.6667V26H11.3335V16C11.3335 15.0833 11.6602 14.2989 12.3135 13.6467C12.9668 12.9944 13.7513 12.6678 14.6668 12.6667H21.3335C22.2502 12.6667 23.0352 12.9933 23.6885 13.6467C24.3418 14.3 24.6679 15.0844 24.6668 16V26H21.3335V37.6667H14.6668ZM18.0002 11C17.0835 11 16.2991 10.6739 15.6468 10.0217C14.9946 9.36944 14.6679 8.58444 14.6668 7.66666C14.6668 6.74999 14.9935 5.96555 15.6468 5.31333C16.3002 4.66111 17.0846 4.33444 18.0002 4.33333C18.9168 4.33333 19.7018 4.66 20.3552 5.31333C21.0085 5.96666 21.3346 6.75111 21.3335 7.66666C21.3335 8.58333 21.0074 9.36833 20.3552 10.0217C19.7029 10.675 18.9179 11.0011 18.0002 11Z" fill="black"/>
</svg>
