<svg width="75" height="74" viewBox="0 0 75 74" fill="none" xmlns="http://www.w3.org/2000/svg">
<path d="M11.7665 2.13337L37.4998 27.8667L63.0998 2.26671C63.6653 1.66482 64.3465 1.18334 65.1025 0.851122C65.8586 0.518906 66.674 0.342803 67.4998 0.333374C69.2679 0.333374 70.9636 1.03575 72.2138 2.286C73.4641 3.53624 74.1665 5.23193 74.1665 7.00004C74.182 7.81739 74.0303 8.62929 73.7208 9.38592C73.4113 10.1425 72.9504 10.8279 72.3665 11.4L46.4331 37L72.3665 62.9334C73.4652 64.0083 74.1095 65.464 74.1665 67C74.1665 68.7682 73.4641 70.4638 72.2138 71.7141C70.9636 72.9643 69.2679 73.6667 67.4998 73.6667C66.6502 73.702 65.8025 73.5602 65.0106 73.2503C64.2187 72.9404 63.4999 72.4692 62.8998 71.8667L37.4998 46.1334L11.8331 71.8C11.2698 72.3819 10.5969 72.8464 9.85313 73.1667C9.10938 73.4871 8.30955 73.6571 7.49978 73.6667C5.73167 73.6667 4.03598 72.9643 2.78574 71.7141C1.53549 70.4638 0.833116 68.7682 0.833116 67C0.817573 66.1827 0.969219 65.3708 1.27875 64.6142C1.58828 63.8575 2.04916 63.1721 2.63312 62.6L28.5664 37L2.63312 11.0667C1.53435 9.99177 0.890047 8.53612 0.833116 7.00004C0.833116 5.23193 1.53549 3.53624 2.78574 2.286C4.03598 1.03575 5.73167 0.333374 7.49978 0.333374C9.09978 0.353374 10.6331 1.00004 11.7665 2.13337Z" fill="black"/>
</svg>
