<svg width="24" height="24" viewBox="0 0 24 24" fill="none" xmlns="http://www.w3.org/2000/svg">
<path d="M3.00057 23.9732H21.0006C21.1828 23.9727 21.3615 23.9224 21.5173 23.8279C21.673 23.7333 21.8001 23.5981 21.8848 23.4367C21.9694 23.2753 22.0085 23.0939 21.9977 22.912C21.9869 22.73 21.9267 22.5545 21.8236 22.4042L12.8236 9.40425C12.4506 8.86525 11.5526 8.86525 11.1786 9.40425L2.17857 22.4042C2.0744 22.5542 2.01331 22.7298 2.00194 22.912C1.99057 23.0943 2.02936 23.2761 2.11409 23.4379C2.19882 23.5996 2.32625 23.735 2.48254 23.8294C2.63883 23.9238 2.81799 23.9735 3.00057 23.9732Z" fill="black"/>
</svg>
