<svg width="50" height="50" viewBox="0 0 50 50" fill="none" xmlns="http://www.w3.org/2000/svg">
<path d="M7.81251 37.5C7.81251 37.0856 7.64789 36.6882 7.35486 36.3951C7.06184 36.1021 6.66441 35.9375 6.25001 35.9375C5.83561 35.9375 5.43818 36.1021 5.14515 36.3951C4.85213 36.6882 4.68751 37.0856 4.68751 37.5H7.81251ZM4.68751 29.1667C4.68751 29.5811 4.85213 29.9785 5.14515 30.2715C5.43818 30.5645 5.83561 30.7292 6.25001 30.7292C6.66441 30.7292 7.06184 30.5645 7.35486 30.2715C7.64789 29.9785 7.81251 29.5811 7.81251 29.1667H4.68751ZM14.5833 18.2292C16.5917 18.2292 17.9417 18.2333 18.9479 18.3687C19.9083 18.4979 20.3208 18.7208 20.5917 18.9937L22.8 16.7812C21.8521 15.8333 20.6708 15.4479 19.3625 15.2708C18.1 15.1 16.5042 15.1042 14.5833 15.1042V18.2292ZM24.4792 25C24.4792 23.0792 24.4833 21.4833 24.3125 20.2208C24.1375 18.9125 23.75 17.7292 22.8 16.7812L20.5917 18.9937C20.8625 19.2646 21.0854 19.675 21.2167 20.6375C21.35 21.6417 21.3542 22.9917 21.3542 25H24.4792ZM14.5833 15.1042C12.6625 15.1042 11.0667 15.1 9.80418 15.2708C8.49584 15.4458 7.31459 15.8333 6.36668 16.7812L8.57501 18.9917C8.84584 18.7208 9.25834 18.4979 10.2208 18.3667C11.225 18.2333 12.575 18.2292 14.5833 18.2292V15.1042ZM7.81251 25C7.81251 22.9917 7.81668 21.6417 7.95209 20.6354C8.08126 19.675 8.30209 19.2625 8.57501 18.9917L6.36459 16.7833C5.41668 17.7312 5.03126 18.9125 4.85418 20.2208C4.68334 21.4833 4.68751 23.0792 4.68751 25H7.81251ZM7.81251 45.8333V37.5H4.68751V45.8333H7.81251ZM7.81251 29.1667V25H4.68751V29.1667H7.81251Z" fill="black"/>
<path d="M14.5832 45.8333V33.3333C14.5832 29.4042 14.5832 27.4417 15.804 26.2208C17.0248 25 18.9873 25 22.9165 25H27.0832M27.0832 25C31.0123 25 32.9748 25 34.1957 26.2208C35.179 27.2021 35.3707 28.6667 35.4082 31.25M27.0832 25V16.1917C27.0832 10.7292 27.0832 7.99999 28.8769 6.75416C30.6707 5.51249 33.2269 6.47082 38.3415 8.38957C40.9582 9.36874 42.2665 9.86041 43.0082 10.9312C43.7498 12.0021 43.7498 13.4 43.7498 16.1917M35.4165 45.8333V40.1042M43.7498 45.8333V25M8.33317 16.6667V13.5417C8.33317 11.5771 8.33317 10.5958 8.94359 9.98541C9.554 9.37499 10.5353 9.37499 12.4998 9.37499H16.6665C18.6311 9.37499 19.6123 9.37499 20.2228 9.98541C20.8332 10.5958 20.8332 11.5771 20.8332 13.5417V16.6667M14.5832 8.33332V4.16666M45.8332 45.8333H4.1665M20.8332 31.25H21.8748M29.1665 31.25H26.0415M20.8332 37.5H29.1665" stroke="black" stroke-width="1.5" stroke-linecap="round"/>
</svg>
